<svg xmlns="http://www.w3.org/2000/svg" width="50" height="50" viewBox="0 0 50 50">
  <g id="Group_3" data-name="Group 3" transform="translate(-293.968 -266.035)">
    <path id="Path_8" data-name="Path 8" d="M303.667,281.353l5.675,5.614,9.811-9.7,9.811,9.7,5.675-5.614-15.486-15.319Z" fill="#f3ba2f"/>
    <path id="Path_9" data-name="Path 9" d="M0,15.319l5.675,5.614,9.811-9.7,9.811,9.7,5.675-5.614L15.486,0Z" transform="translate(334.638 316.035) rotate(180)" fill="#f3ba2f"/>
    <path id="Path_10" data-name="Path 10" d="M299.616,285.335l-5.648,5.648,5.648,5.648,5.648-5.648Z" transform="translate(0 0.017)" fill="#f3ba2f"/>
    <path id="Path_11" data-name="Path 11" d="M299.616,285.335l-5.648,5.648,5.648,5.648,5.648-5.648Z" transform="translate(19.538 0.017)" fill="#f3ba2f"/>
    <path id="Path_12" data-name="Path 12" d="M299.616,285.335l-5.648,5.648,5.648,5.648,5.648-5.648Z" transform="translate(38.703 0.017)" fill="#f3ba2f"/>
  </g>
</svg>
