<?xml version="1.0" encoding="UTF-8"?>
<svg xmlns="http://www.w3.org/2000/svg" xmlns:xlink="http://www.w3.org/1999/xlink" width="62pt" height="62pt" viewBox="0 0 62 62" version="1.1">
<g id="surface1">
<path style="fill-rule:nonzero;fill:rgb(94.117647%,72.54902%,4.313725%);fill-opacity:1;stroke-width:1;stroke-linecap:butt;stroke-linejoin:miter;stroke:rgb(94.117647%,72.54902%,4.313725%);stroke-opacity:1;stroke-miterlimit:4;" d="M 168.205 0.701541 L 209.706255 43.219182 L 105.190071 147.706285 L 63.710012 106.209068 Z M 168.205 0.701541 " transform="matrix(0.184294,0,0,0.183747,0.000806629,0)"/>
<path style="fill-rule:nonzero;fill:rgb(94.117647%,72.54902%,4.313725%);fill-opacity:1;stroke-width:1;stroke-linecap:butt;stroke-linejoin:miter;stroke:rgb(94.117647%,72.54902%,4.313725%);stroke-opacity:1;stroke-miterlimit:4;" d="M 231.198733 63.712685 L 272.699988 106.209068 L 105.190071 273.707315 L 63.710012 232.210097 Z M 231.198733 63.712685 " transform="matrix(0.184294,0,0,0.183747,0.000806629,0)"/>
<path style="fill-rule:nonzero;fill:rgb(94.117647%,72.54902%,4.313725%);fill-opacity:1;stroke-width:1;stroke-linecap:butt;stroke-linejoin:miter;stroke:rgb(94.117647%,72.54902%,4.313725%);stroke-opacity:1;stroke-miterlimit:4;" d="M 42.196338 126.702571 L 83.697593 169.220212 L 42.196338 210.717429 L 0.695082 169.220212 Z M 42.196338 126.702571 " transform="matrix(0.184294,0,0,0.183747,0.000806629,0)"/>
<path style="fill-rule:nonzero;fill:rgb(94.117647%,72.54902%,4.313725%);fill-opacity:1;stroke-width:1;stroke-linecap:butt;stroke-linejoin:miter;stroke:rgb(94.117647%,72.54902%,4.313725%);stroke-opacity:1;stroke-miterlimit:4;" d="M 294.192467 126.702571 L 335.693722 169.220212 L 168.205 336.718459 L 126.703745 295.199982 Z M 294.192467 126.702571 " transform="matrix(0.184294,0,0,0.183747,0.000806629,0)"/>
</g>
</svg>
