<svg xmlns="http://www.w3.org/2000/svg" width="18.335" height="18.335" viewBox="0 0 18.335 18.335">
  <g id="Group_3459" data-name="Group 3459" transform="translate(0 -0.002)">
    <path id="Path_3349" data-name="Path 3349" d="M9.167,18.337a9.145,9.145,0,1,0-6.489-2.679,9.167,9.167,0,0,0,6.489,2.679Z" transform="translate(0)" fill="#00dd9a"/>
    <path id="Path_3350" data-name="Path 3350" d="M721.791,514.289c0-1.337-.8-1.8-2.406-1.986-1.146-.153-1.374-.458-1.374-.994s.382-.877,1.146-.877a1.131,1.131,0,0,1,1.261.8.287.287,0,0,0,.267.191h.611a.261.261,0,0,0,.267-.267v-.038a1.908,1.908,0,0,0-1.719-1.566v-.917c0-.153-.115-.267-.306-.306h-.573c-.153,0-.267.115-.306.306v.877a1.948,1.948,0,0,0-1.872,1.872c0,1.26.764,1.757,2.369,1.948,1.07.191,1.413.42,1.413,1.031s-.535,1.031-1.261,1.031c-.994,0-1.337-.42-1.452-.994a.279.279,0,0,0-.267-.229h-.649a.261.261,0,0,0-.267.267v.038a2.134,2.134,0,0,0,2.024,1.833v.917c0,.153.115.267.306.306h.573c.153,0,.267-.115.306-.306v-.915A2.092,2.092,0,0,0,721.791,514.289Z" transform="translate(-710.103 -503.669)" fill="#121420"/>
    <path id="Path_3351" data-name="Path 3351" d="M252.92,303.625a5.716,5.716,0,0,1,0-10.732.383.383,0,0,0,.229-.382v-.535a.29.29,0,0,0-.229-.306.23.23,0,0,0-.153.038,6.874,6.874,0,0,0,0,13.1.232.232,0,0,0,.344-.153c.038-.038.038-.076.038-.153v-.535a.509.509,0,0,0-.229-.344Zm4.049-11.918a.232.232,0,0,0-.344.153c-.038.038-.038.076-.038.153v.535a.507.507,0,0,0,.229.382,5.716,5.716,0,0,1,0,10.732.383.383,0,0,0-.229.382v.535a.29.29,0,0,0,.229.306.23.23,0,0,0,.153-.038,6.9,6.9,0,0,0,0-13.14Z" transform="translate(-245.7 -288.994)" fill="#121420"/>
  </g>
</svg>
