<svg xmlns="http://www.w3.org/2000/svg" width="17.43" height="24" viewBox="0 0 17.43 24">
  <g id="Group_3464" data-name="Group 3464" transform="translate(-728.353 -357.698)">
    <path id="Subtraction_59" data-name="Subtraction 59" d="M8.635,24a8.616,8.616,0,0,1-1.761-.181,8.5,8.5,0,0,1-1.63-.517,8.6,8.6,0,0,1-1.468-.814A8.79,8.79,0,0,1,.669,18.656,8.585,8.585,0,0,1,0,15.337,9.122,9.122,0,0,1,.5,12.3a8.577,8.577,0,0,1,1.111-2.138A8.256,8.256,0,0,1,2.727,8.9a4.994,4.994,0,0,1,.5-.416V5.446A5.422,5.422,0,0,1,3.637,3.39,5.46,5.46,0,0,1,4.777,1.652,5.38,5.38,0,0,1,6.533.449,5.728,5.728,0,0,1,8.79,0a5.2,5.2,0,0,1,2.1.432,5.267,5.267,0,0,1,1.637,1.131,5.578,5.578,0,0,1,1.626,3.883c-.029,2.525,0,3.043,0,3.048a5.55,5.55,0,0,1,.512.435,8.94,8.94,0,0,1,1.127,1.3,8.847,8.847,0,0,1,1.127,2.141,8.936,8.936,0,0,1-.181,6.433,8.39,8.39,0,0,1-1.889,2.744,8.575,8.575,0,0,1-1.3,1.034,8.769,8.769,0,0,1-1.494.772,9.019,9.019,0,0,1-1.649.483A9.376,9.376,0,0,1,8.635,24Zm.08-15.244a6.533,6.533,0,0,0,0,13.067,6.533,6.533,0,0,0,0-13.067ZM8.663,6.575a8.96,8.96,0,0,1,1.3.1,9.587,9.587,0,0,1,1.043.213,7.292,7.292,0,0,1,.945.31V5.587a3.262,3.262,0,1,0-6.518,0V7.2h0a6.805,6.805,0,0,1,.916-.31,9.083,9.083,0,0,1,1.023-.213A8.781,8.781,0,0,1,8.663,6.575Z" transform="translate(728.353 357.698)" fill="#121420"/>
    <path id="Path_3469" data-name="Path 3469" d="M1838.5-669.968a2.211,2.211,0,0,1-1.066-1.85,2.159,2.159,0,0,1,2.158-2.222,2.168,2.168,0,0,1,2.2,2.222,2.14,2.14,0,0,1-1.092,1.85v2.383a1.07,1.07,0,0,1-1.079,1.175,1.088,1.088,0,0,1-1.117-1.175Z" transform="translate(-1102.558 1043.752)" fill="#121420"/>
  </g>
</svg>
