<svg xmlns="http://www.w3.org/2000/svg" width="24" height="23.998" viewBox="0 0 24 23.998">
  <g id="Group_3453" data-name="Group 3453" transform="translate(-2505.385 1749.707)">
    <path id="Path_3440" data-name="Path 3440" d="M2505.391-1748.338a1.228,1.228,0,0,1,1.275-1.37h14.151a1.246,1.246,0,0,1,1.375,1.308v3.444a1.194,1.194,0,0,1-1.18,1.258,1.234,1.234,0,0,1-1.247-1.258v-2.326h-11.96v19.15h11.954v-2.27a1.2,1.2,0,0,1,1.163-1.331,1.218,1.218,0,0,1,1.264,1.331c0,.839-.006,2.568-.006,3.383a1.218,1.218,0,0,1-1.28,1.308l-14.224-.005a1.221,1.221,0,0,1-1.292-1.308C2505.385-1727.841,2505.391-1748.338,2505.391-1748.338Z" fill="#121420"/>
    <path id="Path_3441" data-name="Path 3441" d="M2613.844-1618.106a1.2,1.2,0,0,0-1.279,1.214,1.182,1.182,0,0,0,1.279,1.192h12.589s-1.173,1.144-1.621,1.592a1.187,1.187,0,0,0,.051,1.628,1.241,1.241,0,0,0,1.81-.08c.633-.633,2.995-2.987,3.5-3.489a1.174,1.174,0,0,0,.109-1.606c-.355-.355-3.481-3.474-3.838-3.823a1.169,1.169,0,0,0-1.57.153,1.14,1.14,0,0,0,0,1.65l1.57,1.57Z" transform="translate(-101.161 -120.804)" fill="#121420"/>
  </g>
</svg>
