<svg xmlns="http://www.w3.org/2000/svg" width="18.82" height="19" viewBox="0 0 18.82 19">
  <g id="Group_3530" data-name="Group 3530" transform="translate(-1005.592 -463)">
    <path id="Path_3503" data-name="Path 3503" d="M1123.51-1171.492c-.291.291-.364.62-.079.9s1.314,1.327,1.571,1.584a.655.655,0,0,0,.95-.053c.291-.291,5.967-6.086,6.238-6.356a.621.621,0,0,1,.944,0c.308.308,6.016,6.089,6.291,6.363a.628.628,0,0,0,.937,0l1.505-1.5c.287-.287.287-.624-.106-1.017s-8.3-8.391-8.621-8.706a.638.638,0,0,0-.977,0C1131.873-1179.987,1123.51-1171.492,1123.51-1171.492Z" transform="translate(-117.659 1643.505)" fill="#121420"/>
    <path id="Path_3504" data-name="Path 3504" d="M1140.26-1156.7a.6.6,0,0,1,.9,0l4.956,4.966a.681.681,0,0,1,0,1.092c-.325.325-4.546,4.587-4.9,4.945a.616.616,0,0,1-.975,0c-.277-.277-4.494-4.554-4.844-4.9a.753.753,0,0,1,0-1.178C1135.8-1152.183,1140.26-1156.7,1140.26-1156.7Z" transform="translate(-125.725 1627.454)" fill="#121420"/>
  </g>
</svg>
