<?xml version="1.0" encoding="UTF-8"?>
<svg xmlns="http://www.w3.org/2000/svg" xmlns:xlink="http://www.w3.org/1999/xlink" width="60pt" height="69pt" viewBox="0 0 60 69" version="1.1">
<g id="surface1">
<path style=" stroke:none;fill-rule:evenodd;fill:rgb(38.823529%,18.823529%,0.392157%);fill-opacity:1;" d="M 10.96875 10.78125 C 10.03125 5.175781 13.78125 0 18.65625 0 C 22.96875 0 26.53125 4.097656 26.53125 9.054688 L 26.53125 20.269531 C 27.65625 20.269531 28.78125 20.054688 29.90625 20.054688 C 31.03125 20.054688 31.96875 20.054688 33.09375 20.269531 L 33.09375 9.054688 C 33.09375 4.097656 36.65625 0 40.96875 0 C 45.84375 0 49.59375 5.175781 48.84375 10.78125 L 46.78125 23.933594 C 54.09375 27.601562 59.71875 34.070312 59.71875 42.046875 L 59.71875 47.007812 C 59.71875 53.691406 55.96875 59.296875 50.53125 62.960938 C 45.09375 66.84375 37.96875 69 29.90625 69 C 21.84375 69 14.71875 66.84375 9.28125 62.960938 C 4.03125 59.296875 0.28125 53.691406 0.28125 47.007812 L 0.28125 42.046875 C 0.28125 34.070312 5.71875 27.601562 13.03125 23.933594 Z M 43.96875 25.660156 L 46.40625 10.132812 C 46.96875 6.253906 44.53125 2.585938 40.96875 2.585938 C 37.96875 2.585938 35.53125 5.390625 35.53125 8.839844 L 35.53125 23.070312 C 34.78125 22.855469 33.84375 22.855469 33.09375 22.855469 C 31.96875 22.855469 31.03125 22.640625 29.90625 22.640625 C 28.78125 22.640625 27.65625 22.640625 26.53125 22.855469 C 25.78125 22.855469 24.84375 23.070312 24.09375 23.070312 L 24.09375 9.054688 C 24.09375 5.605469 21.65625 2.804688 18.65625 2.804688 C 15.28125 2.804688 12.65625 6.46875 13.40625 10.351562 L 15.84375 25.875 C 7.96875 29.324219 2.71875 35.363281 2.71875 42.261719 L 2.71875 47.222656 C 2.71875 57.789062 14.90625 66.414062 29.90625 66.414062 C 44.90625 66.414062 57.09375 57.789062 57.09375 47.222656 L 57.09375 42.261719 C 57.28125 35.148438 52.03125 29.109375 43.96875 25.660156 Z M 43.96875 25.660156 "/>
<path style=" stroke:none;fill-rule:nonzero;fill:rgb(99.607843%,86.27451%,56.470588%);fill-opacity:1;" d="M 57.28125 47.007812 C 57.28125 57.570312 45.09375 66.195312 30.09375 66.195312 C 15.09375 66.195312 2.90625 57.570312 2.90625 47.007812 L 2.90625 42.046875 L 57.46875 42.046875 L 57.46875 47.007812 Z M 57.28125 47.007812 "/>
<path style=" stroke:none;fill-rule:evenodd;fill:rgb(81.960784%,53.333333%,30.980392%);fill-opacity:1;" d="M 13.40625 10.351562 C 12.65625 6.46875 15.28125 2.804688 18.65625 2.804688 C 21.65625 2.804688 24.09375 5.605469 24.09375 9.054688 L 24.09375 23.289062 C 25.96875 23.070312 27.84375 22.855469 29.90625 22.855469 C 31.78125 22.855469 33.65625 23.070312 35.53125 23.289062 L 35.53125 9.054688 C 35.53125 5.605469 37.96875 2.804688 40.96875 2.804688 C 44.34375 2.804688 46.96875 6.46875 46.40625 10.351562 L 43.96875 25.875 C 51.84375 29.324219 57.28125 35.363281 57.28125 42.261719 C 57.28125 52.828125 45.09375 61.453125 30.09375 61.453125 C 15.09375 61.453125 2.90625 52.828125 2.90625 42.261719 C 2.90625 35.363281 8.15625 29.324219 16.03125 25.875 Z M 13.40625 10.351562 "/>
<path style=" stroke:none;fill-rule:nonzero;fill:rgb(38.823529%,18.823529%,0.392157%);fill-opacity:1;" d="M 22.40625 40.753906 C 22.40625 43.554688 21.09375 45.929688 19.40625 45.929688 C 17.71875 45.929688 16.40625 43.554688 16.40625 40.753906 C 16.40625 37.949219 17.71875 35.578125 19.40625 35.578125 C 21.09375 35.578125 22.40625 37.949219 22.40625 40.753906 Z M 22.40625 40.753906 "/>
<path style=" stroke:none;fill-rule:nonzero;fill:rgb(38.823529%,18.823529%,0.392157%);fill-opacity:1;" d="M 43.21875 40.753906 C 43.21875 43.554688 41.90625 45.929688 40.21875 45.929688 C 38.53125 45.929688 37.21875 43.554688 37.21875 40.753906 C 37.21875 37.949219 38.53125 35.578125 40.21875 35.578125 C 41.90625 35.578125 43.21875 37.949219 43.21875 40.753906 Z M 43.21875 40.753906 "/>
</g>
</svg>
