<svg xmlns="http://www.w3.org/2000/svg" width="23.985" height="24" viewBox="0 0 23.985 24">
  <path id="Union_3" data-name="Union 3" d="M-995.281,1242h-.042l-8.878,0a5.285,5.285,0,0,1-1.519-.2,3.311,3.311,0,0,1-1.2-.633,2.84,2.84,0,0,1-.788-1.091,4.113,4.113,0,0,1-.283-1.578c0-2.4-.008-16.906-.009-17.05a3.69,3.69,0,0,1,.221-1.258,3.5,3.5,0,0,1,.636-1.1,3.066,3.066,0,0,1,1.011-.778,3.107,3.107,0,0,1,1.345-.3l2.72,0h.014c2,0,4.485,0,6.587,0,1.976,0,3.195,0,3.725.007a3.75,3.75,0,0,1,1.271.226,3.173,3.173,0,0,1,1.069.65,3.35,3.35,0,0,1,1.012,2.535v7.511h.039c.769,0,1.487,0,2.021,0s.915,0,1.1,0a1.338,1.338,0,0,1,.844.271,1.1,1.1,0,0,1,.367.9v8.439a3.819,3.819,0,0,1-.254,1.4,3.256,3.256,0,0,1-.7,1.1,3.146,3.146,0,0,1-1.06.714,3.466,3.466,0,0,1-1.328.255Zm-10.536-20.655c0,.163.009,16.57.009,17.282a1.093,1.093,0,0,0,1.16,1.194l14.085-.009v-18.459a1.138,1.138,0,0,0-1.177-1.143h-13.037A1.054,1.054,0,0,0-1005.817,1221.341Zm17.437,18.459h1.031a1.065,1.065,0,0,0,1.134-1.16c0-.673.009-7.476.009-7.542h-2.157Zm-14.135-4.366a1.054,1.054,0,0,1-1.119-1.063,1.088,1.088,0,0,1,1.119-1.114s3.926-.02,4.42-.02a1.022,1.022,0,0,1,.981,1.109,1.016,1.016,0,0,1-.981,1.088Zm0-4.351a1.054,1.054,0,0,1-1.119-1.063,1.088,1.088,0,0,1,1.119-1.114l8.787-.005a1.022,1.022,0,0,1,.981,1.109,1.015,1.015,0,0,1-.981,1.088Zm0-4.35a1.054,1.054,0,0,1-1.119-1.063,1.088,1.088,0,0,1,1.119-1.114l8.787-.005a1.022,1.022,0,0,1,.981,1.109,1.015,1.015,0,0,1-.981,1.088Z" transform="translate(1008 -1218)" fill="#121420"/>
</svg>
