<?xml version="1.0" encoding="UTF-8"?>
<svg xmlns="http://www.w3.org/2000/svg" xmlns:xlink="http://www.w3.org/1999/xlink" width="55pt" height="55pt" viewBox="0 0 55 55" version="1.1">
<g id="surface1">
<path style=" stroke:none;fill-rule:nonzero;fill:rgb(100%,0%,47.843137%);fill-opacity:1;" d="M 21.570312 12.558594 C 20.882812 12.472656 20.851562 12.445312 21.175781 12.417969 C 21.796875 12.332031 23.234375 12.445312 24.25 12.640625 C 26.601562 13.125 28.726562 14.367188 30.980469 16.546875 L 31.570312 17.140625 L 32.417969 17.027344 C 36.046875 16.519531 39.769531 16.914062 42.875 18.160156 C 43.726562 18.5 45.066406 19.179688 45.230469 19.347656 C 45.292969 19.40625 45.390625 19.773438 45.457031 20.140625 C 45.6875 21.472656 45.589844 22.460938 45.097656 23.226562 C 44.835938 23.652344 44.835938 23.765625 45 24.132812 C 45.128906 24.414062 45.523438 24.613281 45.882812 24.613281 C 46.667969 24.613281 47.484375 23.539062 47.875 22.039062 L 48.039062 21.445312 L 48.332031 21.726562 C 50 23.339844 51.308594 25.574219 51.503906 27.160156 L 51.570312 27.585938 L 51.273438 27.21875 C 50.785156 26.566406 50.328125 26.140625 49.707031 25.773438 C 48.59375 25.121094 47.417969 24.925781 44.3125 24.78125 C 41.503906 24.640625 39.902344 24.445312 38.332031 23.992188 C 35.652344 23.226562 34.28125 22.234375 31.109375 18.585938 C 29.707031 16.972656 28.824219 16.09375 27.941406 15.359375 C 26.011719 13.746094 24.085938 12.898438 21.570312 12.558594 Z M 21.570312 12.558594 "/>
<path style=" stroke:none;fill-rule:nonzero;fill:rgb(100%,0%,47.843137%);fill-opacity:1;" d="M 45.914062 16.152344 C 45.980469 15.078125 46.144531 14.367188 46.503906 13.71875 C 46.632812 13.464844 46.765625 13.238281 46.796875 13.238281 C 46.828125 13.238281 46.765625 13.433594 46.667969 13.660156 C 46.40625 14.285156 46.371094 15.160156 46.535156 16.152344 C 46.765625 17.425781 46.863281 17.59375 48.429688 18.980469 C 49.148438 19.632812 50 20.453125 50.328125 20.792969 L 50.882812 21.414062 L 50.328125 20.960938 C 49.640625 20.398438 48.070312 19.320312 47.710938 19.179688 C 47.484375 19.066406 47.449219 19.066406 47.289062 19.207031 C 47.15625 19.320312 47.125 19.492188 47.125 20.3125 C 47.089844 21.585938 46.894531 22.378906 46.40625 23.199219 C 46.144531 23.621094 46.109375 23.539062 46.339844 23.058594 C 46.503906 22.6875 46.535156 22.519531 46.535156 21.300781 C 46.535156 18.839844 46.210938 18.246094 44.214844 17.253906 C 43.726562 17 42.875 16.632812 42.386719 16.433594 C 41.863281 16.238281 41.46875 16.066406 41.503906 16.066406 C 41.570312 16.011719 43.496094 16.492188 44.25 16.773438 C 45.390625 17.171875 45.589844 17.199219 45.71875 17.171875 C 45.816406 17.085938 45.882812 16.859375 45.914062 16.152344 Z M 45.914062 16.152344 "/>
<path style=" stroke:none;fill-rule:nonzero;fill:rgb(100%,0%,47.843137%);fill-opacity:1;" d="M 22.910156 20.367188 C 21.535156 18.726562 20.652344 16.179688 20.851562 14.285156 L 20.914062 13.691406 L 21.242188 13.746094 C 21.828125 13.832031 22.84375 14.171875 23.332031 14.425781 C 24.640625 15.105469 25.230469 16.039062 25.785156 18.359375 C 25.949219 19.039062 26.175781 19.832031 26.273438 20.085938 C 26.4375 20.511719 27.058594 21.5 27.582031 22.121094 C 27.941406 22.574219 27.710938 22.800781 26.894531 22.746094 C 25.652344 22.632812 23.988281 21.640625 22.910156 20.367188 Z M 22.910156 20.367188 "/>
<path style=" stroke:none;fill-rule:nonzero;fill:rgb(100%,0%,47.843137%);fill-opacity:1;" d="M 44.25 32.679688 C 37.777344 30.414062 35.488281 28.460938 35.488281 25.152344 C 35.488281 24.671875 35.523438 24.273438 35.523438 24.273438 C 35.554688 24.273438 35.785156 24.445312 36.078125 24.640625 C 37.386719 25.546875 38.855469 25.945312 42.941406 26.453125 C 45.328125 26.765625 46.699219 26.992188 47.941406 27.359375 C 51.894531 28.492188 54.347656 30.8125 54.933594 33.953125 C 55.097656 34.859375 55 36.585938 54.738281 37.488281 C 54.511719 38.199219 53.855469 39.5 53.691406 39.527344 C 53.660156 39.527344 53.59375 39.386719 53.59375 39.160156 C 53.53125 37.972656 52.84375 36.839844 51.699219 35.960938 C 50.328125 34.941406 48.5625 34.179688 44.25 32.679688 Z M 44.25 32.679688 "/>
<path style=" stroke:none;fill-rule:nonzero;fill:rgb(100%,0%,47.843137%);fill-opacity:1;" d="M 39.671875 33.613281 C 39.609375 33.1875 39.445312 32.652344 39.347656 32.425781 L 39.183594 32 L 39.476562 32.3125 C 39.902344 32.734375 40.230469 33.246094 40.523438 33.953125 C 40.75 34.488281 40.75 34.660156 40.75 35.539062 C 40.75 36.386719 40.71875 36.585938 40.523438 37.066406 C 40.195312 37.828125 39.804688 38.367188 39.148438 38.960938 C 37.972656 40.007812 36.4375 40.574219 34.25 40.828125 C 33.855469 40.859375 32.746094 40.941406 31.765625 41 C 29.3125 41.113281 27.679688 41.339844 26.210938 41.792969 C 26.011719 41.847656 25.816406 41.90625 25.785156 41.875 C 25.71875 41.820312 26.730469 41.308594 27.550781 40.972656 C 28.691406 40.488281 29.871094 40.234375 32.449219 39.839844 C 33.726562 39.667969 35.03125 39.441406 35.359375 39.328125 C 38.59375 38.453125 40.195312 36.273438 39.671875 33.613281 Z M 39.671875 33.613281 "/>
<path style=" stroke:none;fill-rule:nonzero;fill:rgb(100%,0%,47.843137%);fill-opacity:1;" d="M 42.648438 38.167969 C 41.796875 36.554688 41.601562 35.027344 42.058594 33.585938 C 42.125 33.441406 42.191406 33.300781 42.253906 33.300781 C 42.320312 33.300781 42.515625 33.386719 42.710938 33.5 C 43.105469 33.726562 43.921875 34.121094 46.011719 35.113281 C 48.660156 36.359375 50.164062 37.320312 51.210938 38.421875 C 52.125 39.386719 52.679688 40.488281 52.941406 41.847656 C 53.105469 42.613281 53.007812 44.453125 52.777344 45.214844 C 52.058594 47.621094 50.425781 49.546875 48.039062 50.648438 C 47.679688 50.820312 47.386719 50.933594 47.351562 50.933594 C 47.320312 50.933594 47.449219 50.648438 47.648438 50.308594 C 48.429688 48.867188 48.53125 47.480469 47.941406 45.921875 C 47.582031 44.960938 46.828125 43.800781 45.328125 41.847656 C 43.53125 39.585938 43.105469 38.988281 42.648438 38.167969 Z M 42.648438 38.167969 "/>
<path style=" stroke:none;fill-rule:nonzero;fill:rgb(100%,0%,47.843137%);fill-opacity:1;" d="M 18.300781 46.828125 C 20.71875 45.074219 23.691406 43.828125 26.4375 43.433594 C 27.613281 43.261719 29.574219 43.320312 30.652344 43.574219 C 32.386719 43.96875 33.953125 44.820312 34.769531 45.867188 C 35.554688 46.886719 35.914062 47.761719 36.273438 49.714844 C 36.40625 50.480469 36.570312 51.273438 36.601562 51.441406 C 36.863281 52.460938 37.386719 53.253906 38.039062 53.675781 C 39.050781 54.328125 40.816406 54.355469 42.550781 53.789062 C 42.84375 53.707031 43.105469 53.621094 43.105469 53.648438 C 43.171875 53.707031 42.289062 54.214844 41.699219 54.46875 C 40.882812 54.835938 40.230469 54.949219 39.347656 54.949219 C 37.777344 54.949219 36.4375 54.242188 35.359375 52.828125 C 35.128906 52.546875 34.671875 51.726562 34.28125 50.960938 C 33.136719 48.667969 32.550781 47.988281 31.210938 47.226562 C 30.03125 46.574219 28.53125 46.433594 27.386719 46.914062 C 25.882812 47.535156 25.488281 49.207031 26.535156 50.226562 C 26.960938 50.648438 27.746094 50.988281 28.398438 51.074219 C 29.609375 51.214844 30.652344 50.394531 30.652344 49.347656 C 30.652344 48.667969 30.359375 48.273438 29.574219 47.960938 C 28.53125 47.566406 27.386719 48.015625 27.417969 48.894531 C 27.417969 49.261719 27.613281 49.488281 28.039062 49.660156 C 28.300781 49.773438 28.300781 49.773438 28.105469 49.742188 C 27.15625 49.574219 26.929688 48.554688 27.679688 47.902344 C 28.59375 47.113281 30.523438 47.453125 31.175781 48.554688 C 31.4375 49.007812 31.46875 49.914062 31.242188 50.480469 C 30.6875 51.726562 29.117188 52.375 27.515625 52.007812 C 26.4375 51.753906 25.980469 51.5 24.671875 50.339844 C 22.386719 48.300781 21.503906 47.902344 18.234375 47.480469 L 17.613281 47.394531 Z M 18.300781 46.828125 "/>
<path style=" stroke:none;fill-rule:evenodd;fill:rgb(100%,0%,47.843137%);fill-opacity:1;" d="M 1.109375 1.292969 C 8.726562 9.304688 20.457031 21.753906 21.046875 22.433594 C 21.535156 23 21.339844 23.539062 20.523438 23.933594 C 20.066406 24.160156 19.117188 24.386719 18.660156 24.386719 C 18.136719 24.386719 17.515625 24.160156 17.089844 23.792969 C 16.796875 23.539062 15.523438 21.925781 12.648438 18.046875 C 10.457031 15.078125 8.59375 12.613281 8.5625 12.585938 C 8.429688 12.53125 8.429688 12.53125 12.417969 18.699219 C 14.933594 22.574219 15.75 23.960938 15.75 24.132812 C 15.75 24.5 15.621094 24.699219 15.097656 25.207031 C 14.214844 26.058594 13.824219 27.019531 13.53125 29.027344 C 13.203125 31.265625 12.320312 32.847656 9.804688 35.539062 C 8.332031 37.121094 8.105469 37.40625 7.746094 38.054688 C 7.289062 38.847656 7.15625 39.300781 7.089844 40.320312 C 7.027344 41.394531 7.15625 42.074219 7.515625 43.09375 C 7.84375 44 8.203125 44.59375 9.085938 45.753906 C 9.835938 46.773438 10.292969 47.535156 10.292969 47.820312 C 10.292969 48.046875 10.359375 48.046875 11.535156 47.820312 C 14.347656 47.253906 16.667969 46.292969 17.941406 45.101562 C 18.726562 44.367188 18.921875 43.96875 18.921875 42.953125 C 18.921875 42.300781 18.890625 42.160156 18.691406 41.761719 C 18.367188 41.140625 17.746094 40.632812 16.40625 39.839844 C 14.640625 38.792969 13.890625 37.941406 13.691406 36.8125 C 13.53125 35.847656 13.726562 35.199219 14.707031 33.414062 C 15.71875 31.574219 15.980469 30.8125 16.144531 28.941406 C 16.242188 27.753906 16.40625 27.273438 16.796875 26.90625 C 17.222656 26.507812 17.582031 26.367188 18.59375 26.253906 C 20.261719 26.058594 21.339844 25.6875 22.191406 24.980469 C 22.941406 24.386719 23.269531 23.792969 23.300781 22.914062 L 23.332031 22.265625 L 22.910156 21.867188 C 21.371094 20.339844 0.0976562 0.078125 0 0.078125 C -0.03125 0.078125 0.488281 0.613281 1.109375 1.292969 Z M 11.144531 41.535156 C 11.503906 41 11.308594 40.320312 10.71875 39.980469 C 10.164062 39.667969 9.3125 39.808594 9.3125 40.234375 C 9.3125 40.347656 9.378906 40.460938 9.574219 40.519531 C 9.871094 40.660156 9.902344 40.800781 9.671875 41.113281 C 9.445312 41.421875 9.445312 41.707031 9.738281 41.90625 C 10.195312 42.214844 10.816406 42.046875 11.144531 41.535156 Z M 11.144531 41.535156 "/>
<path style=" stroke:none;fill-rule:evenodd;fill:rgb(100%,0%,47.843137%);fill-opacity:1;" d="M 24.378906 26.652344 C 23.59375 26.847656 22.84375 27.585938 22.613281 28.320312 C 22.484375 28.773438 22.550781 29.59375 22.777344 29.847656 C 23.136719 30.246094 23.464844 30.359375 24.378906 30.359375 C 26.175781 30.359375 27.710938 29.679688 27.875 28.859375 C 28.039062 28.179688 27.351562 27.246094 26.40625 26.820312 C 25.914062 26.59375 24.902344 26.507812 24.378906 26.652344 Z M 26.46875 28.066406 C 26.730469 27.726562 26.632812 27.359375 26.144531 27.105469 C 25.261719 26.621094 23.921875 27.019531 23.921875 27.753906 C 23.921875 28.121094 24.609375 28.519531 25.261719 28.519531 C 25.6875 28.519531 26.273438 28.292969 26.46875 28.066406 Z M 26.46875 28.066406 "/>
</g>
</svg>
