<svg xmlns="http://www.w3.org/2000/svg" width="28.219" height="24" viewBox="0 0 28.219 24">
  <g id="Group_3452" data-name="Group 3452" transform="translate(-2479.615 1742.139)">
    <path id="Subtraction_48" data-name="Subtraction 48" d="M8.785,18.471h-5.6A3.292,3.292,0,0,1,1.853,18.2a2.908,2.908,0,0,1-1-.726A3.54,3.54,0,0,1,0,15.1V3.309A3.433,3.433,0,0,1,.881.961a2.975,2.975,0,0,1,.98-.7A3.008,3.008,0,0,1,3.091,0H12.3a3.2,3.2,0,0,1,1.338.284,3.14,3.14,0,0,1,1,.722,3.022,3.022,0,0,1,.84,1.984H16.82a3.534,3.534,0,0,1,1.163.189,3,3,0,0,1,.967.551A3.209,3.209,0,0,1,20.016,5.81a.686.686,0,0,0-.183-.021A3.3,3.3,0,0,0,19,5.955L18.834,6a2.4,2.4,0,0,1-.473.117.091.091,0,0,1-.041-.007.026.026,0,0,1-.015-.024c0-.871-.617-1.39-1.65-1.39l-1.693,0h-.016c-1.872,0-5,.006-7.335.006-1.946,0-3.005,0-3.149-.008a1.4,1.4,0,0,1-.7-.19.713.713,0,0,1-.329-.635,1.066,1.066,0,0,1,.068-.4A.682.682,0,0,1,3.7,3.2a.853.853,0,0,1,.321-.16,1.655,1.655,0,0,1,.437-.052h9.282a1.571,1.571,0,0,0-.229-.622,1.383,1.383,0,0,0-1.246-.622H3.228A1.469,1.469,0,0,0,1.712,3.331c0,.45,0,3.021,0,5.742v.041c0,2.735,0,5.562,0,6.061A1.487,1.487,0,0,0,3.263,16.74l1.48,0,4.115,0a.038.038,0,0,1,.029.014,2.615,2.615,0,0,1-.032,1c-.03.253-.06.515-.069.714Z" transform="translate(2479.615 -1742.139)" fill="#121420" />
    <path id="Subtraction_49" data-name="Subtraction 49" d="M16.82,18.471H3.185A3.292,3.292,0,0,1,1.853,18.2a2.908,2.908,0,0,1-1-.726A3.54,3.54,0,0,1,0,15.1V3.309A3.433,3.433,0,0,1,.881.961a2.975,2.975,0,0,1,.98-.7A3.008,3.008,0,0,1,3.091,0H12.3a3.2,3.2,0,0,1,1.338.284,3.14,3.14,0,0,1,1,.722,3.022,3.022,0,0,1,.84,1.984H16.82a3.493,3.493,0,0,1,1.272.23,2.953,2.953,0,0,1,1.026.665A3.038,3.038,0,0,1,19.8,4.951a3.976,3.976,0,0,1,.249,1.432v9.009a2.951,2.951,0,0,1-.235,1.153,3.093,3.093,0,0,1-.662.984,3.148,3.148,0,0,1-1.021.685A3.385,3.385,0,0,1,16.82,18.471ZM3.228,1.746A1.469,1.469,0,0,0,1.712,3.331c0,.45,0,3.021,0,5.742v.041c0,2.735,0,5.562,0,6.061A1.487,1.487,0,0,0,3.263,16.74l1.441,0h.019c1.954,0,5.592.007,8.35.007,2.2,0,3.453,0,3.72-.008a1.476,1.476,0,0,0,1.513-1.651v-9c0-.871-.617-1.39-1.65-1.39l-1.693,0h-.016c-1.872,0-5,.006-7.335.006-1.946,0-3.005,0-3.149-.008a1.4,1.4,0,0,1-.7-.19.713.713,0,0,1-.329-.635,1.066,1.066,0,0,1,.068-.4A.682.682,0,0,1,3.7,3.2a.853.853,0,0,1,.321-.16,1.655,1.655,0,0,1,.437-.052h9.282a1.571,1.571,0,0,0-.229-.622,1.383,1.383,0,0,0-1.246-.622Z" transform="translate(2487.783 -1736.61)" fill="#121420" />
    <path id="Path_3439" data-name="Path 3439" d="M2719.355-1639.243a.866.866,0,0,0-.918.9.84.84,0,0,0,.918.8h2.97a.833.833,0,0,0,.828-.835.846.846,0,0,0-.932-.862Z" transform="translate(-217.822 -91.839)" fill="#121420" />
  </g>
</svg>
