<svg xmlns="http://www.w3.org/2000/svg" width="24" height="20.293" viewBox="0 0 24 20.293">
  <path id="Union_1" data-name="Union 1" d="M-1003.463,1238.292a4.443,4.443,0,0,1-1.792-.372,4.494,4.494,0,0,1-.772-.434,4.588,4.588,0,0,1-.668-.571,4.663,4.663,0,0,1-.547-.687,4.687,4.687,0,0,1-.411-.782,4.634,4.634,0,0,1-.348-1.766v-11.033a4.8,4.8,0,0,1,.327-1.747,4.722,4.722,0,0,1,.393-.786,4.58,4.58,0,0,1,.532-.7,4.365,4.365,0,0,1,1.438-1.027,4.585,4.585,0,0,1,1.867-.384l3.32,0h0c1.831,0,3.906,0,5.765,0s3.14,0,3.913.008a4.894,4.894,0,0,1,1.811.349,4.4,4.4,0,0,1,1.458.956,4.359,4.359,0,0,1,.972,1.463,4.939,4.939,0,0,1,.353,1.871v1.993h0a2.457,2.457,0,0,1,.288.125,3.283,3.283,0,0,1,.635.417,2.644,2.644,0,0,1,.635.772,2.488,2.488,0,0,1,.289,1.189v1.911a2.744,2.744,0,0,1-.2,1.058,2.639,2.639,0,0,1-.492.767,3.1,3.1,0,0,1-.605.509,3.2,3.2,0,0,1-.542.283v1.877a5.005,5.005,0,0,1-.345,1.839,4.823,4.823,0,0,1-.407.805,4.675,4.675,0,0,1-.542.7,4.409,4.409,0,0,1-1.425,1.021,4.32,4.32,0,0,1-1.774.375Zm-2.68-15.552v10.729a2.833,2.833,0,0,0,3,2.978h12.589a2.762,2.762,0,0,0,2.869-2.963v-1.623h-.03c-.606,0-2.183.01-3.75.01-1.094,0-1.962,0-2.582-.01a3.928,3.928,0,0,1-2.68-1.045,3.5,3.5,0,0,1-.81-1.157,3.683,3.683,0,0,1-.3-1.47,3.954,3.954,0,0,1,.278-1.482,3.509,3.509,0,0,1,.779-1.183,3.541,3.541,0,0,1,1.2-.783,4.116,4.116,0,0,1,1.532-.283h6.356v-1.688a2.865,2.865,0,0,0-3.056-2.93l-6.827-.005h-.126l-5.531,0A2.818,2.818,0,0,0-1006.143,1222.74Zm10.143,5.389a1.868,1.868,0,0,0,1.865,1.865h7.2a1.173,1.173,0,0,0,.733-.2,1.029,1.029,0,0,0,.341-.867v-1.619a.964.964,0,0,0-1.075-1h-7.2A1.824,1.824,0,0,0-996,1228.129Zm1.764.927a.879.879,0,0,1-.843-.91.88.88,0,0,1,.843-.927h1.113a.885.885,0,0,1,.812.927.883.883,0,0,1-.812.91Z" transform="translate(1008 -1218)" fill="#121420" />
</svg>